# xmcd
#
# Track frame offsets:
#	150
#	12912
#	23765
#	34622
#	44745
#	56872
#	69200
#	81880
#	93460
#	106155
#
# Disc length: 1551
#
# Revision: 1
# Processed by: cddbd v1.5.1PL0 Copyright (c) Steve Scherf et al.
# Submitted via: CDex 1.40Release
# Normalized: r0:DSETVAR1,TDELIM( - )
#
DISCID=79060d0a
DTITLE=Various Artist - Country Love Songs
DYEAR=1992
DGENRE=Country
TTITLE0=Reba McEntire - Only You
TTITLE1=George Jones - Tender Years
TTITLE2=Hank Williams - I Can't Help It
TTITLE3=Dolly Parton - Release Me
TTITLE4=Johnny Cash - You're The Nearest Thing To Heaven
TTITLE5=Willie Nelson - Shelter Of My Arms
TTITLE6=David Houston and Tammy Wynette - My Elusive Dreams
TTITLE7=Sammi Smith - Help Me Make It Through The Night
TTITLE8=Freddy Fender - Since I Met You Baby
TTITLE9=Mickey Gilley - I Miss You
EXTD=YEAR: 1992 ID3G: 2
EXTT0=
EXTT1=
EXTT2=
EXTT3=
EXTT4=
EXTT5=
EXTT6=
EXTT7=
EXTT8=
EXTT9=
PLAYORDER=
